<svg width="148" height="32" viewBox="0 0 148 32" fill="none" xmlns="http://www.w3.org/2000/svg">
<path d="M63.0771 25.0999H64.5574V6.8999H63.0771V25.0999Z" fill="white"/>
<path d="M73.3826 12.0219C69.539 12.0219 66.9161 14.7779 66.9161 18.6779C66.9161 22.6299 69.617 25.3859 73.4865 25.3859C75.7459 25.3859 77.7976 24.4759 79.0182 22.9679L78.0053 22.0839C77.1223 23.2279 75.3044 23.9819 73.5125 23.9819C70.6298 23.9819 68.6561 22.1879 68.4223 19.2499H79.8492C80.2128 14.9079 77.6158 12.0219 73.3826 12.0219ZM73.4086 13.3739C76.3692 13.3739 78.3689 15.1939 78.4208 17.9499H68.4223C68.708 15.1679 70.5779 13.3739 73.4086 13.3739Z" fill="white"/>
<path d="M96.9365 12.0739C94.8849 12.0739 93.1449 13.1399 92.21 15.0119C91.5088 13.1399 89.8727 12.0739 87.6652 12.0739C85.8733 12.0739 84.367 12.9059 83.4321 14.4139L83.4061 12.2559H82.0556V25.0999H83.5359V17.8979C83.5359 15.3239 85.25 13.4519 87.6133 13.4519C90.0025 13.4519 91.327 14.9599 91.327 17.7159V25.0999H92.8073V17.8979C92.8073 15.3239 94.5213 13.4519 96.9106 13.4519C99.2998 13.4519 100.624 14.9599 100.624 17.7159V25.0999H102.105V17.6119C102.105 14.1539 100.157 12.0739 96.9365 12.0739Z" fill="white"/>
<path d="M111.813 12.0219C109.45 12.0219 107.476 13.1139 106.515 14.8039L106.489 12.2559H105.139V31.2879H106.619V22.7079C107.606 24.3199 109.528 25.3339 111.813 25.3339C115.605 25.3339 118.254 22.5779 118.254 18.6779C118.254 14.7779 115.605 12.0219 111.813 12.0219ZM111.683 23.9559C108.723 23.9559 106.619 21.8499 106.619 18.6779C106.619 15.5059 108.723 13.3999 111.683 13.3999C114.67 13.3999 116.773 15.5059 116.773 18.6779C116.773 21.8499 114.67 23.9559 111.683 23.9559Z" fill="white"/>
<path d="M121.366 9.4739C122.067 9.4739 122.56 8.9799 122.56 8.3039C122.56 7.6539 122.067 7.1599 121.366 7.1599C120.691 7.1599 120.197 7.6539 120.197 8.3039C120.197 8.9799 120.691 9.4739 121.366 9.4739ZM120.639 25.0999H122.119V12.2559H120.639V25.0999Z" fill="white"/>
<path d="M130.996 12.0999C129.152 12.0999 127.62 13.1399 126.711 14.9339L126.685 12.2559H125.334V25.0999H126.815V18.5739C126.815 15.6879 128.555 13.5299 130.944 13.5299C131.723 13.5299 132.45 13.7379 133.126 14.1539L133.775 12.8799C133.048 12.3859 132.035 12.0999 130.996 12.0999Z" fill="white"/>
<path d="M140.028 12.0219C136.184 12.0219 133.561 14.7779 133.561 18.6779C133.561 22.6299 136.262 25.3859 140.131 25.3859C142.391 25.3859 144.442 24.4759 145.663 22.9679L144.65 22.0839C143.767 23.2279 141.949 23.9819 140.157 23.9819C137.275 23.9819 135.301 22.1879 135.067 19.2499H146.494C146.858 14.9079 144.261 12.0219 140.028 12.0219ZM140.053 13.3739C143.014 13.3739 145.014 15.1939 145.066 17.9499H135.067C135.353 15.1679 137.223 13.3739 140.053 13.3739Z" fill="white"/>
<path fill-rule="evenodd" clip-rule="evenodd" d="M21.209 6.80714C21.6626 6.31978 22.4305 6.31978 22.884 6.80713L34.8366 19.6493C35.2447 20.2936 35.8806 20.7948 36.6685 21.0171C38.3684 21.4967 40.1323 20.4969 40.6083 18.784L43.8808 7.00679C44.3568 5.29387 43.3646 3.51646 41.6647 3.03684C39.9648 2.55722 38.2009 3.55702 37.7249 5.26994L35.9989 11.4816L27.5469 2.40056C24.5679 -0.800192 19.5252 -0.800185 16.5462 2.40057L8.02254 11.5587L6.27508 5.26994C5.79911 3.55702 4.03521 2.55722 2.33531 3.03684C0.635411 3.51646 -0.356779 5.29387 0.119193 7.00679L3.39174 18.784C3.86771 20.4969 5.63161 21.4967 7.33151 21.0171C7.85692 20.8688 8.31472 20.5966 8.68245 20.2406C8.76601 20.1677 8.84663 20.0897 8.92391 20.0067L21.209 6.80714ZM5.06664 25.5584C3.30136 25.5584 1.87032 27.0004 1.87032 28.7792C1.87032 30.558 3.30136 32 5.06664 32C5.06664 32 37.1931 32 38.9583 32C40.7236 32 42.1547 30.558 42.1547 28.7792C42.1547 27.0004 40.7236 25.5584 38.9583 25.5584H5.06664Z" fill="white"/>
</svg>
